<svg width="21" height="15" viewBox="0 0 21 15" fill="none" xmlns="http://www.w3.org/2000/svg">
<path d="M5.92311 5.44314C5.92311 5.75669 5.94412 6.00752 5.99662 6.22074C6.04913 6.37124 6.12264 6.57191 6.21716 6.79766C6.25916 6.84783 6.26967 6.92308 6.26967 6.98579C6.26967 7.07358 6.22766 7.14883 6.13315 7.23662L5.69208 7.58779C5.62907 7.63796 5.56606 7.66304 5.51355 7.66304C5.44004 7.66304 5.37703 7.61288 5.30352 7.53763C5.209 7.41221 5.12499 7.28679 5.05148 7.14883C4.98847 7.01087 4.91496 6.84783 4.84144 6.6597C4.29536 7.42475 3.61275 7.81355 2.78312 7.81355C2.19503 7.81355 1.73296 7.61288 1.38641 7.21154C1.05035 6.8102 0.871826 6.2709 0.871826 5.59365C0.871826 4.90385 1.08186 4.33947 1.50192 3.88796C1.93249 3.46154 2.49958 3.23579 3.21369 3.23579C3.45523 3.23579 3.67576 3.26087 3.95931 3.31104C4.20084 3.34866 4.48439 3.41137 4.75743 3.48662V2.88462C4.75743 2.24498 4.65241 1.8311 4.43188 1.54264C4.20084 1.27926 3.83329 1.16639 3.2977 1.16639C3.04566 1.16639 2.79363 1.20401 2.54159 1.26672C2.27904 1.34197 2.02701 1.42977 1.78547 1.55518C1.66995 1.60535 1.57544 1.64298 1.54393 1.65552C1.49142 1.6806 1.45992 1.6806 1.42841 1.6806C1.3339 1.6806 1.28139 1.60535 1.28139 1.42977V1.01589C1.28139 0.890468 1.29189 0.790134 1.3339 0.727425C1.3654 0.664716 1.42841 0.614549 1.52293 0.576923C1.77497 0.401338 2.05851 0.27592 2.40506 0.175585C2.76156 0.0642644 3.12877 0.00944654 3.49723 0.0125421C4.32686 0.0125421 4.93596 0.238295 5.32452 0.6898C5.71308 1.1413 5.90211 1.8311 5.90211 2.74665V5.44314H5.92311ZM3.08767 6.72241C3.31871 6.72241 3.54974 6.67224 3.80178 6.57191C4.05382 6.47157 4.27436 6.28344 4.46339 6.03261C4.5789 5.86957 4.66292 5.69398 4.72593 5.49331C4.72593 5.29264 4.77843 5.05435 4.77843 4.76589V4.42726C4.5684 4.33946 4.35837 4.33946 4.12733 4.27676C3.91103 4.24853 3.69378 4.23179 3.47623 4.22659C3.00366 4.22659 2.66761 4.33947 2.43657 4.56522C2.20553 4.79097 2.10052 5.10451 2.10052 5.51839C2.10052 5.91973 2.17403 6.22074 2.35256 6.40886C2.52058 6.62207 2.76212 6.72241 3.08767 6.72241ZM8.69554 7.61288C8.59388 7.6165 8.49299 7.59068 8.4015 7.53763C8.36999 7.47492 8.31749 7.36204 8.27548 7.21154L6.63722 0.76505C6.59522 0.576923 6.57421 0.489131 6.57421 0.426422C6.57421 0.288462 6.62672 0.213211 6.74224 0.213211H7.42485C7.56137 0.213211 7.65588 0.238295 7.69789 0.301004C7.7609 0.351171 7.80291 0.464047 7.84491 0.62709L9.01059 6.14548L10.1028 0.62709C10.1343 0.464047 10.1763 0.351171 10.2393 0.301004C10.2918 0.250836 10.3863 0.213211 10.5018 0.213211H11.0794C11.2054 0.213211 11.2999 0.238295 11.3525 0.301004C11.405 0.351171 11.4575 0.464047 11.489 0.62709L12.6022 6.22074L13.7993 0.62709C13.8413 0.464047 13.8939 0.351171 13.9359 0.301004C13.9989 0.250836 14.0829 0.213211 14.2089 0.213211H14.86C14.9755 0.213211 15.0385 0.288462 15.0385 0.426422C15.0385 0.464047 15.028 0.514214 15.0175 0.576923C15.0175 0.576923 14.9965 0.677258 14.9755 0.76505L13.2848 7.21154C13.2428 7.38712 13.2007 7.47492 13.1272 7.53763C13.0852 7.58779 12.9907 7.62542 12.8752 7.62542H12.2766C12.1401 7.62542 12.0771 7.60033 11.9931 7.53763C11.9224 7.44822 11.8782 7.33372 11.867 7.21154L10.7854 1.8311L9.7037 7.199C9.6722 7.36204 9.63019 7.47492 9.57768 7.53763C9.49097 7.59405 9.3927 7.62013 9.29414 7.61288H8.69554ZM17.6744 7.83863C17.3279 7.83863 16.9393 7.78846 16.5928 7.68813C16.2462 7.58779 15.9732 7.47492 15.7947 7.36204C15.7034 7.30965 15.6269 7.2269 15.5741 7.12375C15.5456 7.05343 15.5312 6.97612 15.5321 6.89799V6.47157C15.5321 6.29599 15.5846 6.22074 15.6896 6.22074H15.8157C15.8577 6.22074 15.9207 6.28344 15.9942 6.32107C16.2252 6.44649 16.4878 6.54682 16.7608 6.60953C17.0443 6.67224 17.3279 6.70987 17.5904 6.70987C18.0315 6.70987 18.3781 6.62207 18.6091 6.43395C18.8506 6.22074 18.9766 5.98244 18.9766 5.64381C18.9766 5.40552 18.9031 5.21739 18.7876 5.05435C18.6616 4.90385 18.4201 4.75334 18.084 4.62793L17.0653 4.25167C16.5613 4.051 16.1832 3.77508 15.9522 3.39883C15.7267 3.05054 15.6048 2.62251 15.6056 2.18227C15.6056 1.8311 15.6686 1.5301 15.7947 1.26672C15.9207 0.990803 16.0887 0.76505 16.2777 0.576923C16.5088 0.388796 16.7398 0.250836 17.0233 0.150502C17.2964 0.0501671 17.5904 0 17.9055 0C18.0525 0 18.21 0.0125421 18.3781 0.0376257C18.5251 0.0627093 18.6721 0.100334 18.8191 0.125418C18.9661 0.175585 19.0922 0.213211 19.2182 0.263378C19.3442 0.313545 19.4282 0.363712 19.5122 0.413879C19.6067 0.476589 19.6803 0.539298 19.7223 0.614549C19.7643 0.6898 19.7853 0.777592 19.7853 0.890468V1.29181C19.7853 1.46739 19.7328 1.55518 19.6277 1.55518C19.5752 1.55518 19.4807 1.51756 19.3547 1.45485C18.9661 1.24164 18.5146 1.12876 18.021 1.12876C17.6219 1.12876 17.3279 1.20401 17.0864 1.36706C16.8763 1.51756 16.7608 1.76839 16.7608 2.10702C16.7608 2.34532 16.8343 2.54599 16.9708 2.69649C17.1074 2.85953 17.3699 3.01003 17.7375 3.16054L18.7351 3.53679C19.2392 3.71237 19.5962 3.98829 19.8168 4.33946C20.0268 4.67809 20.1318 5.06689 20.1318 5.50585C20.1318 5.85702 20.0688 6.18311 19.9533 6.47157C19.8273 6.74749 19.6593 6.99833 19.4282 7.199C19.2287 7.41221 18.9661 7.56271 18.6721 7.67558C18.3781 7.78846 18.021 7.83863 17.6744 7.83863ZM18.9871 11.9022C16.6873 13.9214 13.3478 15 10.5018 15C6.4587 15 2.83563 13.2191 0.0947047 10.2717C-0.12583 10.0334 0.0737014 9.7199 0.336242 9.90803C3.2977 11.9523 6.94177 13.194 10.7224 13.194C13.2743 13.194 16.0782 12.5669 18.6511 11.2375C19.0397 11.0493 19.3652 11.5635 18.9871 11.9022ZM19.9533 10.6104C19.6488 10.1463 18 10.3846 17.2544 10.4849C17.0338 10.5226 17.0023 10.2843 17.2019 10.1087C18.5146 9.01756 20.6779 9.35619 20.9194 9.69482C21.1715 10.0711 20.8564 12.6547 19.6277 13.8838C19.4282 14.0719 19.2497 13.9716 19.3337 13.7458C19.6172 12.893 20.2368 11.0368 19.9533 10.6104Z" fill="currentColor"/>
</svg>
