<svg width="17" height="23" viewBox="0 0 17 23" fill="none" xmlns="http://www.w3.org/2000/svg">
<path d="M17 18.561L9.24375 22.7961C8.7125 23.068 8.18125 23.068 7.65 22.7961L0 18.561L13.8656 4.81018L14.2375 4.70562C14.5562 4.70562 14.7369 4.84156 14.7687 5.12389L17 18.561ZM5.68438 5.01932L0.85 12.9143L2.86875 0.418277C2.90062 0.13594 3.08125 0 3.4 0C3.6125 0 3.75062 0.0627416 3.825 0.261423L6.10938 4.39191L5.68438 5.01932ZM10.4656 6.33689L0.31875 16.3651L8.02188 3.50307C8.12813 3.29393 8.2875 3.19982 8.5 3.19982C8.7125 3.19982 8.85063 3.29393 8.925 3.50307L10.4656 6.33689Z" fill="currentColor"/>
</svg>
