<svg width="26" height="26" viewBox="0 0 26 26" fill="none" xmlns="http://www.w3.org/2000/svg">
<path d="M12.9167 0C11.2204 0 9.54079 0.3341 7.97367 0.983223C6.40655 1.63235 4.98263 2.58378 3.7832 3.7832C1.36086 6.20555 0 9.49095 0 12.9167C0 18.6258 3.70708 23.4696 8.835 25.1875C9.48083 25.2908 9.6875 24.8904 9.6875 24.5417V22.3588C6.10958 23.1338 5.3475 20.6279 5.3475 20.6279C4.75333 19.1296 3.91375 18.7292 3.91375 18.7292C2.73833 17.9283 4.00417 17.9542 4.00417 17.9542C5.29583 18.0446 5.98042 19.2846 5.98042 19.2846C7.10417 21.2479 9.00292 20.6667 9.73917 20.3567C9.85542 19.5171 10.1913 18.9488 10.5529 18.6258C7.68542 18.3029 4.67583 17.1921 4.67583 12.2708C4.67583 10.8371 5.16667 9.6875 6.00625 8.77042C5.87708 8.4475 5.425 7.10417 6.13542 5.36042C6.13542 5.36042 7.22042 5.01167 9.6875 6.67792C10.7079 6.39375 11.8188 6.25167 12.9167 6.25167C14.0146 6.25167 15.1254 6.39375 16.1458 6.67792C18.6129 5.01167 19.6979 5.36042 19.6979 5.36042C20.4083 7.10417 19.9563 8.4475 19.8271 8.77042C20.6667 9.6875 21.1575 10.8371 21.1575 12.2708C21.1575 17.205 18.135 18.29 15.2546 18.6129C15.7196 19.0133 16.1458 19.8013 16.1458 21.0025V24.5417C16.1458 24.8904 16.3525 25.3038 17.0113 25.1875C22.1392 23.4567 25.8333 18.6258 25.8333 12.9167C25.8333 11.2204 25.4992 9.54079 24.8501 7.97367C24.201 6.40655 23.2496 4.98263 22.0501 3.7832C20.8507 2.58378 19.4268 1.63235 17.8597 0.983223C16.2925 0.3341 14.6129 0 12.9167 0Z" fill="currentColor"/>
</svg>
