
<svg width="28" height="26" viewBox="0 0 28 26" fill="none" xmlns="http://www.w3.org/2000/svg">
<path d="M1.625 10.0312L14 25.8906L0.4375 16.0469C0.25 15.9115 0.119792 15.7318 0.046875 15.5078C-0.0260417 15.2839 -0.0260417 15.0625 0.046875 14.8438L1.625 10.0312ZM8.84375 10.0312H19.1562L14 25.8906L8.84375 10.0312ZM5.75 0.46875L8.84375 10.0312H1.625L4.71875 0.46875C4.80208 0.229167 4.97396 0.109375 5.23438 0.109375C5.49479 0.109375 5.66667 0.229167 5.75 0.46875ZM26.375 10.0312L27.9531 14.8438C28.026 15.0625 28.026 15.2839 27.9531 15.5078C27.8802 15.7318 27.75 15.9115 27.5625 16.0469L14 25.8906L26.375 10.0312ZM26.375 10.0312H19.1562L22.25 0.46875C22.3333 0.229167 22.5052 0.109375 22.7656 0.109375C23.026 0.109375 23.1979 0.229167 23.2812 0.46875L26.375 10.0312Z" fill="currentColor"/>
</svg>
