<svg width="17" height="17" viewBox="0 0 17 17" fill="none" xmlns="http://www.w3.org/2000/svg">
<path d="M2.83333 0C2.08189 0 1.36122 0.298511 0.829864 0.829864C0.298511 1.36122 0 2.08189 0 2.83333V14.1667C0 14.9181 0.298511 15.6388 0.829864 16.1701C1.36122 16.7015 2.08189 17 2.83333 17H14.1667C14.9181 17 15.6388 16.7015 16.1701 16.1701C16.7015 15.6388 17 14.9181 17 14.1667V2.83333C17 2.08189 16.7015 1.36122 16.1701 0.829864C15.6388 0.298511 14.9181 0 14.1667 0H2.83333ZM9.75989 12.3297C10.4399 12.8775 11.1186 13.1476 11.7961 13.1401C12.2117 13.1401 12.5303 13.0639 12.7519 12.9115C12.8551 12.8445 12.939 12.7518 12.9955 12.6425C13.052 12.5332 13.079 12.4111 13.0739 12.2882C13.0754 12.1541 13.0474 12.0213 12.9919 11.8993C12.9364 11.7772 12.8548 11.6688 12.7528 11.5817C12.5312 11.3884 12.1119 11.1945 11.4948 10.9999C10.7538 10.7859 10.1824 10.5088 9.78067 10.1688C9.38652 9.82883 9.18567 9.35441 9.17811 8.74556C9.17811 8.1707 9.42744 7.68935 9.92611 7.3015C10.4109 6.91365 11.0311 6.71972 11.7867 6.71972C12.8394 6.71972 13.6841 6.97598 14.3206 7.4885L13.5934 8.62089C13.3315 8.4173 13.0311 8.26887 12.7103 8.18456C12.4221 8.08797 12.1208 8.03543 11.8169 8.02872C11.458 8.02872 11.1706 8.09452 10.9546 8.22611C10.7405 8.35833 10.6335 8.53148 10.6335 8.74556C10.6335 8.98104 10.7648 9.18189 11.0273 9.34811C11.2918 9.50804 11.742 9.68465 12.3779 9.87794C13.1467 10.1065 13.6938 10.4112 14.0193 10.7922C14.3449 11.1731 14.5076 11.6579 14.5076 12.2466C14.5076 12.8492 14.2756 13.3686 13.8116 13.8049C13.3544 14.2344 12.6896 14.4594 11.8169 14.4802C10.6741 14.4802 9.71833 14.1374 8.94956 13.4517L9.75989 12.3297ZM4.53711 12.9323C4.75874 13.0708 5.02539 13.1401 5.33706 13.1401C5.66257 13.1401 5.93268 13.0466 6.14739 12.8596C6.36146 12.6656 6.46881 12.3297 6.46944 11.8518V6.84439H7.87194V12.1219C7.85117 12.9392 7.61568 13.5279 7.1655 13.8881C6.91917 14.0963 6.63278 14.2519 6.324 14.3452C6.03766 14.4324 5.74025 14.4778 5.44094 14.4802C4.9215 14.4802 4.46093 14.3902 4.05922 14.2101C3.62981 14.0168 3.26967 13.674 2.97878 13.1816L3.95533 12.3817C4.13478 12.6241 4.3287 12.8076 4.53711 12.9323Z" fill="currentColor"/>
</svg>
