<svg width="38" height="35" viewBox="0 0 38 35" fill="none" xmlns="http://www.w3.org/2000/svg">
<path d="M33.7778 0H4.22222C1.9 0 0 1.75 0 3.88889V31.1111C0 33.25 1.9 35 4.22222 35H33.7778C36.1 35 38 33.25 38 31.1111V3.88889C38 1.75 36.1 0 33.7778 0ZM8.44444 7.77778H12.6667V11.6667H8.44444V7.77778ZM8.44444 15.5556H12.6667V19.4444H8.44444V15.5556ZM8.44444 23.3333H12.6667V27.2222H8.44444V23.3333ZM29.5556 27.2222H16.8889V23.3333H29.5556V27.2222ZM29.5556 19.4444H16.8889V15.5556H29.5556V19.4444ZM29.5556 11.6667H16.8889V7.77778H29.5556V11.6667Z" fill="currentColor"/>
</svg>
