<svg width="42" height="35" viewBox="0 0 42 35" fill="none" xmlns="http://www.w3.org/2000/svg">
<path d="M28.4995 12.012C28.4995 12.012 29.8242 6.53125 28.4995 4.6731C27.1749 2.81807 26.6482 1.58138 23.7356 0.696028C20.823 -0.189326 21.8842 -0.01288 19.7664 0.0776854C17.6486 0.168251 15.8829 1.31593 15.8829 1.93584C15.8829 1.93584 14.5583 2.02328 14.0316 2.55418C13.5017 3.08508 12.6197 5.55845 12.6197 6.17679C12.6197 6.79514 13.0607 10.9549 13.5017 11.8371L12.9766 12.0151C12.534 17.1414 14.7375 17.7614 14.7375 17.7614C15.5323 22.5363 16.3271 20.5033 16.3271 21.74C16.3271 22.9767 15.5323 22.5363 15.5323 22.5363C15.5323 22.5363 14.8279 24.4804 13.0638 25.1877C11.2997 25.8951 1.50692 29.6941 0.710586 30.4905C-0.0873019 31.2868 0.00308387 35 0.00308387 35H41.9966C41.9966 35 42.0901 31.2884 41.2922 30.4905C40.4975 29.6941 30.7031 25.8935 28.939 25.1877C27.1749 24.4804 26.4705 22.5363 26.4705 22.5363C26.4705 22.5363 25.6758 22.9767 25.6758 21.74C25.6758 20.5033 26.4705 22.5363 27.2653 17.7614C27.2653 17.7614 29.4673 17.1414 29.0263 12.0151H28.4964L28.4995 12.012Z" fill="currentColor"/>
</svg>
