<svg width="20" height="22" viewBox="0 0 20 22" fill="none" xmlns="http://www.w3.org/2000/svg">
<path d="M9.67567 11.7141C10.2491 11.7141 10.714 11.2492 10.714 10.6758C10.714 10.1023 10.2491 9.63745 9.67567 9.63745C9.10221 9.63745 8.63733 10.1023 8.63733 10.6758C8.63733 11.2492 9.10221 11.7141 9.67567 11.7141Z" fill="currentColor"/>
<path d="M14.3482 10.6757C14.3482 13.4792 13.7792 15.992 12.8821 17.7863C11.9704 19.6096 10.8075 20.5399 9.67569 20.5399C8.54391 20.5399 7.38097 19.6096 6.46931 17.7863C5.57218 15.992 5.00317 13.4792 5.00317 10.6757C5.00317 7.87222 5.57218 5.35944 6.46931 3.56623C7.38097 1.74187 8.54391 0.811523 9.67569 0.811523C10.8075 0.811523 11.9704 1.74187 12.8821 3.56623C13.7792 5.35841 14.3482 7.87118 14.3482 10.6757Z" stroke="currentColor"/>
<path d="M12.0119 14.7222C9.58323 16.1239 7.12237 16.8882 5.12149 17.0076C3.08635 17.1301 1.69809 16.587 1.13324 15.6079C0.567341 14.6277 0.790584 13.1553 1.9151 11.4535C3.01886 9.78178 4.91071 8.03114 7.33938 6.62938C9.76805 5.22763 12.2289 4.46341 14.2298 4.344C16.2649 4.22148 17.6532 4.76453 18.218 5.74368C18.7839 6.72284 18.5607 8.19624 17.4362 9.89703C16.3324 11.5708 14.4406 13.3204 12.0119 14.7222Z" stroke="currentColor"/>
<path d="M12.0119 6.62938C9.58323 5.22763 7.12237 4.46341 5.12149 4.344C3.08635 4.22148 1.69809 4.76453 1.13324 5.74368C0.567341 6.72284 0.790584 8.19624 1.9151 9.89703C3.01886 11.5708 4.91071 13.3204 7.33938 14.7222C9.76805 16.1239 12.2289 16.8882 14.2298 17.0076C16.2649 17.1301 17.6532 16.587 18.218 15.6079C18.7839 14.6287 18.5607 13.1553 17.4362 11.4545C16.3324 9.78074 14.4406 8.03114 12.0119 6.62938Z" stroke="currentColor"/>
</svg>
