<svg width="34" height="33" viewBox="0 0 34 33" fill="none" xmlns="http://www.w3.org/2000/svg">
<path d="M24.9307 21.2814H23.3551L22.7967 20.7591C25.1899 18.0507 26.4264 14.3557 25.7484 10.4285C24.811 5.05042 20.1841 0.755689 14.5999 0.0979383C6.1638 -0.908034 -0.936099 5.97901 0.100965 14.1622C0.779046 19.579 5.20651 24.0672 10.7508 24.9764C14.7994 25.6342 18.6086 24.4347 21.4007 22.1133L21.9391 22.6549V24.1832L30.4151 32.4051C31.2328 33.1983 32.569 33.1983 33.3867 32.4051C34.2044 31.612 34.2044 30.3158 33.3867 29.5226L24.9307 21.2814ZM12.9645 21.2814C7.99861 21.2814 3.98996 17.3929 3.98996 12.5759C3.98996 7.7588 7.99861 3.87033 12.9645 3.87033C17.9305 3.87033 21.9391 7.7588 21.9391 12.5759C21.9391 17.3929 17.9305 21.2814 12.9645 21.2814Z" fill="currentColor"/>
</svg>
