<svg width="39" height="19" viewBox="0 0 39 19" fill="none" xmlns="http://www.w3.org/2000/svg">
<path d="M26.3478 0L26.2259 0.709144C26.0374 2.05307 26.1056 2.43757 26.6224 2.93633L27.1213 3.397L26.6045 5.96879C26.2957 7.50315 25.9171 8.78904 25.6766 9.21163C25.4702 9.57617 25.2298 10.113 25.1778 10.4014C25.0916 10.746 24.7991 11.0924 24.3522 11.3989C23.9574 11.6492 23.1823 12.3203 22.633 12.8589C22.1943 13.2996 21.892 13.5699 21.7279 13.6859L21.1916 14.1593C21.0537 14.3876 20.95 14.6393 20.8845 14.9047C20.8471 15.0988 20.8682 15.2276 20.9235 15.3219C20.9777 15.4126 21.0687 15.4772 21.1965 15.5159C21.3467 15.554 21.501 15.5681 21.6548 15.5577C22.0026 15.5311 22.3469 15.463 22.6818 15.3545C22.7955 15.3201 22.8849 15.2874 22.9629 15.2584C23.0831 15.0934 23.361 14.7814 23.8534 14.2391C25.1599 12.8009 25.6587 12.0137 25.1436 12.2259C24.9535 12.3021 25.0396 12.1099 25.3662 11.7254C26.0553 10.9763 26.4501 9.8446 27.2756 6.29525C27.9289 3.49313 27.9289 3.45323 28.4099 3.45323C28.6357 3.45323 29.2744 3.49675 29.2744 3.49675V0H27.8086H26.3478ZM32.5861 5.74026C32.4821 5.74026 32.3099 5.91437 32.2075 6.10662C32.019 6.45122 32.2416 6.66161 35.0789 8.63851C36.764 9.83009 38.1225 10.8457 38.0884 10.9237C38.0542 10.98 36.6779 11.9793 35.0285 13.131C32.0352 15.2022 32.019 15.2221 32.2936 15.6447C32.6381 16.1435 32.2936 16.3158 36.179 13.6098L39 11.5948V10.0786L35.8524 7.90941C34.151 6.71964 32.6722 5.76021 32.5861 5.74026ZM6.448 5.95246C6.36188 5.95246 4.88312 6.93184 3.18175 8.10166L0 10.2708V11.787L3.16388 13.9943C4.91888 15.2022 6.39762 16.2015 6.46588 16.2015C6.53413 16.2015 6.67225 16.0274 6.81038 15.817C7.01675 15.4525 6.84288 15.2983 3.93738 13.2452C1.17 11.3064 0.8775 11.038 1.15375 10.8276C1.326 10.6934 2.6325 9.79019 4.043 8.81262C7.25887 6.60538 7.08663 6.75773 6.82825 6.29706C6.72588 6.10662 6.552 5.93432 6.44963 5.95246H6.448ZM20.5595 5.99418C20.085 5.99055 19.0645 6.79763 16.0095 9.58161C15.8779 9.93165 15.8665 10.1729 15.9266 10.3288C15.9667 10.434 16.0366 10.5126 16.1362 10.5646C16.2338 10.619 16.3605 10.6517 16.5002 10.6644C16.7781 10.6916 17.1064 10.6426 17.3713 10.5846L17.55 10.5392C17.6118 10.4483 17.692 10.375 17.784 10.3252C17.9725 10.2091 18.7639 9.40387 19.5553 8.54057C20.9479 6.9663 21.2745 6.25534 20.7074 6.02501C20.6614 6.00224 20.6097 5.99169 20.5595 5.99418ZM24.128 7.08782C23.7104 7.10051 22.958 7.64099 21.6694 8.78904C21.0226 9.37486 20.6131 9.69043 20.3938 9.75573L19.5422 10.5066C19.2221 11.1595 19.175 11.564 19.2595 11.787C19.2806 11.8421 19.3114 11.8919 19.3498 11.9336C19.3883 11.9753 19.4338 12.0081 19.4837 12.0301C19.6074 12.0868 19.7401 12.1146 19.8737 12.1117C20.1927 12.1074 20.5097 12.0556 20.8162 11.9575C20.9757 11.9086 21.1335 11.853 21.2891 11.7907L21.3363 11.7689L21.4224 11.7181C21.5849 11.4842 21.9586 11.0434 22.4266 10.5356C23.9054 8.9432 24.661 7.81147 24.5066 7.38889C24.4368 7.18394 24.3165 7.08056 24.128 7.08782ZM20.189 9.04658C20.0688 9.06109 19.799 9.29324 19.3131 9.76842C18.6111 10.4612 17.8458 10.8603 17.5809 10.6825L17.3956 10.726C17.1259 10.7859 16.7895 10.8349 16.4889 10.8077C16.3472 10.7984 16.2083 10.7597 16.0794 10.6934C15.9579 10.6309 15.8609 10.5213 15.8064 10.3851C15.7463 10.2218 15.7463 10.0187 15.8145 9.75935L14.7582 10.7279L12.3679 12.9351V16.5135L20.2004 9.62696C20.1986 9.55154 20.2074 9.47627 20.2264 9.40387C20.2865 9.16084 20.2832 9.03751 20.189 9.0484V9.04658ZM23.5592 10.2055C23.4406 10.2055 23.2424 10.3923 22.9255 10.7678C22.4949 11.281 21.8172 11.778 21.4581 11.8795L21.4029 11.9122L21.2241 11.9884C21.1255 12.0258 21.002 12.0669 20.8536 12.1117C20.5611 12.2006 20.1971 12.2822 19.8721 12.2731C19.7188 12.2744 19.5668 12.2411 19.4253 12.1752C19.2911 12.1143 19.1837 11.9971 19.1263 11.8487C19.032 11.5966 19.0694 11.2429 19.2758 10.7405L12.3663 16.8145V19H15.4017L21.84 13.3559C22.0068 13.1479 22.2598 12.8668 22.5989 12.5125C23.5089 11.5712 23.7153 11.2466 23.7153 10.7659C23.7153 10.3923 23.6779 10.2037 23.5592 10.2037V10.2055ZM25.0916 13.7422L24.5408 14.3552C24.232 14.6817 23.6811 15.0843 23.3041 15.2566L23.2294 15.2929L23.2245 15.3019L23.2083 15.3201C23.1936 15.3328 23.1871 15.3346 23.1758 15.34C23.0256 15.4046 22.8727 15.4609 22.7175 15.5087C22.3734 15.6214 22.0191 15.6913 21.6612 15.7173C21.4921 15.7304 21.3221 15.7138 21.1575 15.6683C21.0143 15.6338 20.8879 15.5406 20.8032 15.4071C20.7231 15.2729 20.7041 15.0946 20.7464 14.8721C20.7794 14.7139 20.8313 14.5614 20.9008 14.4187L15.7056 19H22.6151L23.4406 17.9444C24.5749 16.4681 25.0916 15.4126 25.0916 14.5094V13.7422Z" fill="currentColor"/>
</svg>
