<svg width="21" height="13" viewBox="0 0 21 13" fill="none" xmlns="http://www.w3.org/2000/svg">
<path d="M10.5 0C7.6965 0 5.9535 1.44083 5.25 4.33333C6.3 2.8925 7.5285 2.35083 8.925 2.70833C9.723 2.91417 10.3005 3.51 10.9305 4.17083C11.9595 5.25417 13.125 6.5 15.75 6.5C18.5535 6.5 20.2965 5.05917 21 2.16667C19.95 3.6075 18.7215 4.14917 17.325 3.79167C16.527 3.58583 15.96 2.99 15.3195 2.32917C14.2905 1.24583 13.125 0 10.5 0ZM5.25 6.5C2.4465 6.5 0.7035 7.94083 0 10.8333C1.05 9.3925 2.2785 8.85083 3.675 9.20833C4.473 9.41417 5.04 10.01 5.6805 10.6708C6.7095 11.7542 7.875 13 10.5 13C13.3035 13 15.0465 11.5592 15.75 8.66667C14.7 10.1075 13.4715 10.6492 12.075 10.2917C11.277 10.0858 10.71 9.49 10.0695 8.82917C9.0405 7.74583 7.875 6.5 5.25 6.5Z" fill="currentColor"/>
</svg>
