<svg width="18" height="18" viewBox="0 0 18 18" fill="none" xmlns="http://www.w3.org/2000/svg">
<path d="M15.992 0H1.73C0.775 0 0 0.787 0 1.758V16.242C0 17.212 0.775 18 1.73 18H15.992C16.948 18 17.722 17.213 17.722 16.242V1.758C17.722 0.788 16.948 0 15.992 0ZM10.28 9.984H8.065V16.418H6.3V9.984H4.084V8.543H10.28V9.984ZM15.992 15.261C15.853 15.578 15.615 15.813 15.334 16C15.036 16.1843 14.7081 16.3149 14.365 16.386C13.978 16.4674 13.5835 16.5077 13.188 16.506C12.7818 16.5073 12.3763 16.4704 11.977 16.396C11.6283 16.3346 11.2902 16.2235 10.973 16.066V14.377L10.907 14.324L10.973 14.309V14.377C11.267 14.615 11.591 14.7967 11.945 14.922C12.292 15.055 12.672 15.122 13.053 15.122C13.295 15.122 13.479 15.101 13.642 15.062C13.7885 15.0286 13.9286 14.9719 14.057 14.894C14.1593 14.8321 14.244 14.745 14.303 14.641C14.3641 14.5254 14.3917 14.395 14.3825 14.2646C14.3733 14.1341 14.3277 14.0089 14.251 13.903C14.1575 13.7708 14.0402 13.6571 13.905 13.568C13.7419 13.4526 13.5677 13.3538 13.385 13.273C13.178 13.178 12.967 13.079 12.728 12.981C12.139 12.7 11.675 12.419 11.378 12.031C11.077 11.681 10.928 11.223 10.928 10.696C10.928 10.274 11.008 9.936 11.17 9.641C11.343 9.325 11.547 9.093 11.828 8.903C12.105 8.71 12.416 8.569 12.797 8.481C13.177 8.393 13.559 8.348 13.974 8.348C14.389 8.348 14.736 8.372 15.047 8.421C15.358 8.471 15.649 8.548 15.912 8.65V10.302C15.7825 10.2071 15.6434 10.126 15.497 10.06C15.1873 9.92566 14.8611 9.83318 14.527 9.785C14.378 9.76272 14.2276 9.75169 14.077 9.752C13.8911 9.74951 13.7055 9.76864 13.524 9.809C13.3771 9.8383 13.2364 9.89277 13.108 9.97C13.0034 10.0325 12.9145 10.118 12.848 10.22C12.7861 10.3178 12.7538 10.4313 12.755 10.547C12.755 10.6763 12.7897 10.7933 12.859 10.898C12.9277 10.9993 13.026 11.098 13.154 11.194C13.268 11.285 13.424 11.377 13.604 11.468C13.811 11.559 13.998 11.651 14.227 11.746C14.538 11.879 14.815 12.027 15.057 12.168C15.3 12.308 15.504 12.473 15.68 12.66C15.867 12.835 16.002 13.047 16.096 13.293C16.19 13.539 16.238 13.816 16.238 14.136C16.238 14.593 16.13 14.945 15.992 15.261Z" fill="currentColor"/>
</svg>
